<svg width="128" height="128" viewBox="0 0 128 128" fill="none" xmlns="http://www.w3.org/2000/svg">
<rect width="128" height="128" rx="16" fill="#F7F8FC"/>
<path d="M25.6526 65.7724C23.4491 64.6706 23.4491 62.8844 25.6526 61.7826L37.6218 55.798C39.8252 54.6963 43.3978 54.6963 45.6012 55.798L57.5704 61.7826C59.7739 62.8844 59.7739 64.6706 57.5704 65.7724L45.6012 71.757C43.3978 72.8587 39.8252 72.8587 37.6218 71.757L25.6526 65.7724Z" fill="#3245BD"/>
<path d="M47.5961 76.7441C45.3926 75.6424 45.3926 73.8561 47.5961 72.7544L59.5653 66.7698C61.7687 65.6681 65.3413 65.6681 67.5447 66.7698L79.5139 72.7544C81.7174 73.8561 81.7174 75.6424 79.5139 76.7441L67.5447 82.7287C65.3413 83.8304 61.7687 83.8304 59.5653 82.7287L47.5961 76.7441Z" fill="#3245BD"/>
<path d="M47.5961 54.8006C45.3926 53.6989 45.3926 51.9126 47.5961 50.8109L59.5653 44.8263C61.7687 43.7246 65.3413 43.7246 67.5447 44.8263L79.5139 50.8109C81.7174 51.9126 81.7174 53.6989 79.5139 54.8006L67.5447 60.7852C65.3413 61.8869 61.7687 61.8869 59.5653 60.7852L47.5961 54.8006Z" fill="#3245BD"/>
<path d="M69.5396 65.7724C67.3361 64.6706 67.3361 62.8844 69.5396 61.7826L81.5088 55.798C83.7122 54.6963 87.2848 54.6963 89.4882 55.798L101.457 61.7826C103.661 62.8844 103.661 64.6706 101.457 65.7724L89.4882 71.757C87.2848 72.8587 83.7122 72.8587 81.5088 71.757L69.5396 65.7724Z" fill="#3245BD"/>
</svg>
